<mxfile host="app.diagrams.net" modified="2021-10-24T16:03:52.819Z" agent="5.0 (Windows NT 10.0; Win64; x64) AppleWebKit/537.36 (KHTML, like Gecko) Chrome/94.0.4606.81 Safari/537.36" etag="KQPltig4M0-DWcD0_F_8" version="15.5.9" type="github">
  <diagram id="C5RBs43oDa-KdzZeNtuy" name="Page-1">
    <mxGraphModel dx="1422" dy="762" grid="1" gridSize="10" guides="1" tooltips="1" connect="1" arrows="1" fold="1" page="1" pageScale="1" pageWidth="1654" pageHeight="2336" math="0" shadow="0">
      <root>
        <mxCell id="WIyWlLk6GJQsqaUBKTNV-0" />
        <mxCell id="WIyWlLk6GJQsqaUBKTNV-1" parent="WIyWlLk6GJQsqaUBKTNV-0" />
        <mxCell id="WIyWlLk6GJQsqaUBKTNV-2" value="" style="rounded=0;html=1;jettySize=auto;orthogonalLoop=1;fontSize=11;endArrow=block;endFill=0;endSize=8;strokeWidth=1;shadow=0;labelBackgroundColor=none;edgeStyle=orthogonalEdgeStyle;" parent="WIyWlLk6GJQsqaUBKTNV-1" source="WIyWlLk6GJQsqaUBKTNV-3" edge="1">
          <mxGeometry relative="1" as="geometry">
            <mxPoint x="220" y="200" as="targetPoint" />
          </mxGeometry>
        </mxCell>
        <mxCell id="WIyWlLk6GJQsqaUBKTNV-3" value="Developer Gets Defect in redesign" style="rounded=1;whiteSpace=wrap;html=1;fontSize=12;glass=0;strokeWidth=1;shadow=0;" parent="WIyWlLk6GJQsqaUBKTNV-1" vertex="1">
          <mxGeometry x="90" y="120" width="260" height="40" as="geometry" />
        </mxCell>
        <mxCell id="W0PxqNpWnUrbfJZ4qqQS-2" style="edgeStyle=orthogonalEdgeStyle;rounded=0;orthogonalLoop=1;jettySize=auto;html=1;exitX=0.5;exitY=1;exitDx=0;exitDy=0;" edge="1" parent="WIyWlLk6GJQsqaUBKTNV-1" source="W0PxqNpWnUrbfJZ4qqQS-0" target="W0PxqNpWnUrbfJZ4qqQS-1">
          <mxGeometry relative="1" as="geometry" />
        </mxCell>
        <mxCell id="W0PxqNpWnUrbfJZ4qqQS-0" value="Creates a new Branch develop branch of any of the below projects in Solaire repo collection&lt;br&gt;(Templates or UI or Solaire or DataAccess or Service Layer...)" style="rounded=1;whiteSpace=wrap;html=1;" vertex="1" parent="WIyWlLk6GJQsqaUBKTNV-1">
          <mxGeometry x="85" y="200" width="270" height="80" as="geometry" />
        </mxCell>
        <mxCell id="W0PxqNpWnUrbfJZ4qqQS-10" value="" style="edgeStyle=orthogonalEdgeStyle;rounded=0;orthogonalLoop=1;jettySize=auto;html=1;" edge="1" parent="WIyWlLk6GJQsqaUBKTNV-1" source="W0PxqNpWnUrbfJZ4qqQS-1" target="W0PxqNpWnUrbfJZ4qqQS-8">
          <mxGeometry relative="1" as="geometry" />
        </mxCell>
        <mxCell id="W0PxqNpWnUrbfJZ4qqQS-1" value="Developer starts Working on the branch" style="rounded=1;whiteSpace=wrap;html=1;" vertex="1" parent="WIyWlLk6GJQsqaUBKTNV-1">
          <mxGeometry x="100" y="340" width="240" height="50" as="geometry" />
        </mxCell>
        <mxCell id="W0PxqNpWnUrbfJZ4qqQS-12" value="" style="edgeStyle=orthogonalEdgeStyle;rounded=0;orthogonalLoop=1;jettySize=auto;html=1;" edge="1" parent="WIyWlLk6GJQsqaUBKTNV-1" source="W0PxqNpWnUrbfJZ4qqQS-8" target="W0PxqNpWnUrbfJZ4qqQS-11">
          <mxGeometry relative="1" as="geometry" />
        </mxCell>
        <mxCell id="W0PxqNpWnUrbfJZ4qqQS-8" value="Dev find a fix of the same" style="rounded=1;whiteSpace=wrap;html=1;" vertex="1" parent="WIyWlLk6GJQsqaUBKTNV-1">
          <mxGeometry x="160" y="420" width="120" height="40" as="geometry" />
        </mxCell>
        <mxCell id="W0PxqNpWnUrbfJZ4qqQS-14" value="" style="edgeStyle=orthogonalEdgeStyle;rounded=0;orthogonalLoop=1;jettySize=auto;html=1;" edge="1" parent="WIyWlLk6GJQsqaUBKTNV-1" source="W0PxqNpWnUrbfJZ4qqQS-11" target="W0PxqNpWnUrbfJZ4qqQS-13">
          <mxGeometry relative="1" as="geometry" />
        </mxCell>
        <mxCell id="W0PxqNpWnUrbfJZ4qqQS-11" value="PR Created" style="rounded=1;whiteSpace=wrap;html=1;" vertex="1" parent="WIyWlLk6GJQsqaUBKTNV-1">
          <mxGeometry x="160" y="525" width="120" height="35" as="geometry" />
        </mxCell>
        <mxCell id="W0PxqNpWnUrbfJZ4qqQS-15" style="edgeStyle=orthogonalEdgeStyle;rounded=0;orthogonalLoop=1;jettySize=auto;html=1;exitX=1;exitY=0.5;exitDx=0;exitDy=0;entryX=1;entryY=0.5;entryDx=0;entryDy=0;" edge="1" parent="WIyWlLk6GJQsqaUBKTNV-1" source="W0PxqNpWnUrbfJZ4qqQS-13" target="W0PxqNpWnUrbfJZ4qqQS-1">
          <mxGeometry relative="1" as="geometry">
            <Array as="points">
              <mxPoint x="400" y="650" />
              <mxPoint x="400" y="365" />
            </Array>
          </mxGeometry>
        </mxCell>
        <mxCell id="W0PxqNpWnUrbfJZ4qqQS-17" value="" style="edgeStyle=orthogonalEdgeStyle;rounded=0;orthogonalLoop=1;jettySize=auto;html=1;" edge="1" parent="WIyWlLk6GJQsqaUBKTNV-1" source="W0PxqNpWnUrbfJZ4qqQS-13" target="W0PxqNpWnUrbfJZ4qqQS-16">
          <mxGeometry relative="1" as="geometry" />
        </mxCell>
        <mxCell id="W0PxqNpWnUrbfJZ4qqQS-13" value="PR Review" style="rhombus;whiteSpace=wrap;html=1;rounded=1;" vertex="1" parent="WIyWlLk6GJQsqaUBKTNV-1">
          <mxGeometry x="180" y="610" width="80" height="80" as="geometry" />
        </mxCell>
        <mxCell id="W0PxqNpWnUrbfJZ4qqQS-21" value="" style="edgeStyle=orthogonalEdgeStyle;rounded=0;orthogonalLoop=1;jettySize=auto;html=1;" edge="1" parent="WIyWlLk6GJQsqaUBKTNV-1" source="W0PxqNpWnUrbfJZ4qqQS-16" target="W0PxqNpWnUrbfJZ4qqQS-20">
          <mxGeometry relative="1" as="geometry" />
        </mxCell>
        <mxCell id="W0PxqNpWnUrbfJZ4qqQS-16" value="Now the developers changes are in the develop branch of the respective solaire repo" style="whiteSpace=wrap;html=1;rounded=1;" vertex="1" parent="WIyWlLk6GJQsqaUBKTNV-1">
          <mxGeometry x="130" y="742" width="180" height="85" as="geometry" />
        </mxCell>
        <mxCell id="W0PxqNpWnUrbfJZ4qqQS-18" value="PR Needs work" style="text;html=1;strokeColor=none;fillColor=none;align=center;verticalAlign=middle;whiteSpace=wrap;rounded=0;" vertex="1" parent="WIyWlLk6GJQsqaUBKTNV-1">
          <mxGeometry x="320" y="610" width="60" height="30" as="geometry" />
        </mxCell>
        <mxCell id="W0PxqNpWnUrbfJZ4qqQS-19" value="PR Approved &amp;amp; Merged" style="text;html=1;strokeColor=none;fillColor=none;align=center;verticalAlign=middle;whiteSpace=wrap;rounded=0;" vertex="1" parent="WIyWlLk6GJQsqaUBKTNV-1">
          <mxGeometry x="230" y="694" width="60" height="30" as="geometry" />
        </mxCell>
        <mxCell id="W0PxqNpWnUrbfJZ4qqQS-23" value="" style="edgeStyle=orthogonalEdgeStyle;rounded=0;orthogonalLoop=1;jettySize=auto;html=1;" edge="1" parent="WIyWlLk6GJQsqaUBKTNV-1" source="W0PxqNpWnUrbfJZ4qqQS-20" target="W0PxqNpWnUrbfJZ4qqQS-22">
          <mxGeometry relative="1" as="geometry" />
        </mxCell>
        <mxCell id="W0PxqNpWnUrbfJZ4qqQS-20" value="Changes needs to be promoted to master branch" style="whiteSpace=wrap;html=1;rounded=1;" vertex="1" parent="WIyWlLk6GJQsqaUBKTNV-1">
          <mxGeometry x="160" y="864.5" width="120" height="60" as="geometry" />
        </mxCell>
        <mxCell id="W0PxqNpWnUrbfJZ4qqQS-25" value="" style="edgeStyle=orthogonalEdgeStyle;rounded=0;orthogonalLoop=1;jettySize=auto;html=1;" edge="1" parent="WIyWlLk6GJQsqaUBKTNV-1" source="W0PxqNpWnUrbfJZ4qqQS-22" target="W0PxqNpWnUrbfJZ4qqQS-24">
          <mxGeometry relative="1" as="geometry" />
        </mxCell>
        <mxCell id="W0PxqNpWnUrbfJZ4qqQS-22" value="Developer Create a PR from develop to master" style="whiteSpace=wrap;html=1;rounded=1;" vertex="1" parent="WIyWlLk6GJQsqaUBKTNV-1">
          <mxGeometry x="160" y="970" width="120" height="60" as="geometry" />
        </mxCell>
        <mxCell id="W0PxqNpWnUrbfJZ4qqQS-27" value="" style="edgeStyle=orthogonalEdgeStyle;rounded=0;orthogonalLoop=1;jettySize=auto;html=1;" edge="1" parent="WIyWlLk6GJQsqaUBKTNV-1" source="W0PxqNpWnUrbfJZ4qqQS-24" target="W0PxqNpWnUrbfJZ4qqQS-26">
          <mxGeometry relative="1" as="geometry" />
        </mxCell>
        <mxCell id="W0PxqNpWnUrbfJZ4qqQS-24" value="Master Merge PR reviewed and merged" style="whiteSpace=wrap;html=1;rounded=1;" vertex="1" parent="WIyWlLk6GJQsqaUBKTNV-1">
          <mxGeometry x="160" y="1060" width="120" height="60" as="geometry" />
        </mxCell>
        <mxCell id="W0PxqNpWnUrbfJZ4qqQS-29" value="" style="edgeStyle=orthogonalEdgeStyle;rounded=0;orthogonalLoop=1;jettySize=auto;html=1;" edge="1" parent="WIyWlLk6GJQsqaUBKTNV-1" source="W0PxqNpWnUrbfJZ4qqQS-26" target="W0PxqNpWnUrbfJZ4qqQS-28">
          <mxGeometry relative="1" as="geometry" />
        </mxCell>
        <mxCell id="W0PxqNpWnUrbfJZ4qqQS-26" value="Trigger Solaire CI Build" style="whiteSpace=wrap;html=1;rounded=1;" vertex="1" parent="WIyWlLk6GJQsqaUBKTNV-1">
          <mxGeometry x="160" y="1150" width="120" height="60" as="geometry" />
        </mxCell>
        <mxCell id="W0PxqNpWnUrbfJZ4qqQS-28" value="CI&lt;br&gt;&amp;nbsp;Build &lt;br&gt;Completes&lt;br&gt;&amp;nbsp;without &lt;br&gt;Issue" style="rhombus;whiteSpace=wrap;html=1;rounded=1;" vertex="1" parent="WIyWlLk6GJQsqaUBKTNV-1">
          <mxGeometry x="145" y="1240" width="150" height="120" as="geometry" />
        </mxCell>
      </root>
    </mxGraphModel>
  </diagram>
</mxfile>
